<svg xmlns="http://www.w3.org/2000/svg" viewBox="0 0 409.89 409.89"><defs><style>.cls-1{fill:#dcb95b;}</style></defs><title>logo</title><g id="Layer_2" data-name="Layer 2"><g id="Layer_1-2" data-name="Layer 1"><path class="cls-1" d="M409.88,204.07a3.74,3.74,0,0,0-4-3.44,3.74,3.74,0,0,0,.3,7.46h.23a3.81,3.81,0,0,0,3.5-4m0-14.68a3.8,3.8,0,0,0-4-3.43,3.76,3.76,0,0,0-3.44,4,3.7,3.7,0,0,0,3.73,3.44h.24a3.77,3.77,0,0,0,3.49-4m-1.69-15.2a3.74,3.74,0,0,0-4.25-3.09,3.65,3.65,0,0,0-3.15,4.19,3.74,3.74,0,0,0,3.66,3.21,2.33,2.33,0,0,0,.58-.05,3.74,3.74,0,0,0,3.15-4.25m-2.85-15a3.74,3.74,0,1,0-3.61,4.61,4.18,4.18,0,0,0,.81-.11,3.75,3.75,0,0,0,2.8-4.49m-4-14.73a3.75,3.75,0,0,0-4.66-2.5,3.76,3.76,0,0,0,1.11,7.34,3.38,3.38,0,0,0,1.1-.17,3.71,3.71,0,0,0,2.45-4.66M396.31,130a3.71,3.71,0,0,0-4.83-2.15,3.78,3.78,0,0,0-2.11,4.89,3.74,3.74,0,0,0,3.5,2.34,3.44,3.44,0,0,0,1.34-.24,3.7,3.7,0,0,0,2.09-4.84m-6.11-14a3.71,3.71,0,0,0-4.95-1.75,3.66,3.66,0,0,0-1.75,4.95,3.77,3.77,0,0,0,3.38,2.16,3.19,3.19,0,0,0,1.57-.41,3.66,3.66,0,0,0,1.75-5M383,102.41A3.68,3.68,0,0,0,378,101a3.8,3.8,0,0,0-1.4,5.13,3.88,3.88,0,0,0,3.27,1.87,3.65,3.65,0,0,0,1.86-.52,3.73,3.73,0,0,0,1.34-5.08m-9.09-7.8a3.73,3.73,0,1,0-4.25-6.12,3.72,3.72,0,0,0-.93,5.19,3.67,3.67,0,0,0,3,1.63,3.63,3.63,0,0,0,2.16-.7m-8.74-12.23a3.66,3.66,0,0,0,.58-5.24,3.73,3.73,0,1,0-2.91,6.05,3.46,3.46,0,0,0,2.33-.81m-9.55-11.53a3.75,3.75,0,1,0-5.13-5.48,3.69,3.69,0,0,0-.18,5.24,3.76,3.76,0,0,0,2.74,1.22,4,4,0,0,0,2.56-1M345.22,60a3.69,3.69,0,0,0-.23-5.24,3.65,3.65,0,0,0-5.25.18,3.7,3.7,0,0,0,.18,5.24,3.62,3.62,0,0,0,2.57,1A3.7,3.7,0,0,0,345.22,60M334,50a3.75,3.75,0,1,0-5.25.58h-.05a3.56,3.56,0,0,0,2.33.81A3.81,3.81,0,0,0,334,50M322.1,40.84a3.68,3.68,0,0,0-1-5.18,3.73,3.73,0,1,0-4.2,6.17,4,4,0,0,0,2.1.65,3.68,3.68,0,0,0,3.09-1.64m-12.52-8.21a3.79,3.79,0,0,0-1.4-5.12A3.73,3.73,0,0,0,304.44,34a3.61,3.61,0,0,0,1.87.53,3.88,3.88,0,0,0,3.26-1.87M296.4,25.34a3.79,3.79,0,0,0-1.75-5,3.74,3.74,0,0,0-3.21,6.76,3.89,3.89,0,0,0,1.58.34,3.7,3.7,0,0,0,3.38-2.1m-13.63-6.29a3.73,3.73,0,1,0-4.84,2.1,3.94,3.94,0,0,0,1.34.29,3.79,3.79,0,0,0,3.5-2.39m-14-5.24a3.74,3.74,0,1,0-4.66,2.5H264a4.2,4.2,0,0,0,1.16.18,3.77,3.77,0,0,0,3.55-2.68M254.28,9.68a3.75,3.75,0,0,0-2.79-4.49A3.79,3.79,0,0,0,247,8a3.72,3.72,0,0,0,2.8,4.43,4.64,4.64,0,0,0,.87.12,3.72,3.72,0,0,0,3.61-2.91m-14.68-3a3.75,3.75,0,0,0-3.14-4.25,3.71,3.71,0,1,0-1.11,7.34,1.54,1.54,0,0,0,.53.06,3.76,3.76,0,0,0,3.73-3.14m-14.91-2a3.67,3.67,0,0,0-3.44-4V.64a3.77,3.77,0,0,0-4,3.5,3.71,3.71,0,0,0,3.43,4c.12,0,.18.05.29.05a3.79,3.79,0,0,0,3.73-3.5M209.56,3.45a3.73,3.73,0,0,0-4-3.44,3.69,3.69,0,0,0-3.44,4,3.71,3.71,0,0,0,3.73,3.5h.24a3.8,3.8,0,0,0,3.49-4m-15,.68a3.71,3.71,0,1,0-7.4.52,3.67,3.67,0,0,0,3.73,3.44h.23a3.71,3.71,0,0,0,3.44-4M179.6,5.48a3.74,3.74,0,1,0-3.73,4.32,2,2,0,0,0,.58-.06,3.74,3.74,0,0,0,3.14-4.25M164.75,8a3.69,3.69,0,0,0-4.43-2.8,3.79,3.79,0,0,0-2.86,4.49,3.8,3.8,0,0,0,3.67,2.91,4.09,4.09,0,0,0,.81-.12A3.7,3.7,0,0,0,164.75,8M150.18,11.6a3.72,3.72,0,1,0-3.55,4.83,4.11,4.11,0,0,0,1.11-.17,3.67,3.67,0,0,0,2.44-4.66m-14.27,4.71A3.73,3.73,0,1,0,129,19.05a3.71,3.71,0,0,0,3.44,2.33,3.9,3.9,0,0,0,1.39-.23,3.72,3.72,0,0,0,2.09-4.84M122,22.08a3.74,3.74,0,0,0-5-1.75,3.7,3.7,0,0,0,1.63,7A4.05,4.05,0,0,0,120.3,27,3.72,3.72,0,0,0,122,22.08m-13.4,6.75a3.72,3.72,0,0,0-5.13-1.34,3.65,3.65,0,0,0-1.34,5.06,3.57,3.57,0,0,0,3.2,1.87,4.24,4.24,0,0,0,1.86-.47,3.8,3.8,0,0,0,1.4-5.13M94.78,41.77a3.73,3.73,0,1,0-5.18-.93,3.69,3.69,0,0,0,3.09,1.57,3.57,3.57,0,0,0,2.1-.64M83,50.57a3.77,3.77,0,0,0,.59-5.24A3.73,3.73,0,0,0,77.71,50a3.61,3.61,0,0,0,2.92,1.39A3.86,3.86,0,0,0,83,50.57M205,23.81c-100.43,0-182.14,81.7-182.14,182.13S104.53,388.09,205,388.09s182.14-81.71,182.14-182.14S305.39,23.81,205,23.81M205,42c90.38,0,163.9,73.52,163.9,163.9S295.34,369.84,205,369.84s-163.9-73.52-163.9-163.9S114.59,42,205,42m-5.71,44.53v9.95H194v9.36h15.21V96.52h-4.09V86.58ZM177,105.88h14V96.52h-2.92V86.58h-7.31v9.95H177Zm-6.14,0h2.93V96.52H170V86.58h-6.14v16.09a2.56,2.56,0,0,0,2.34,2.77,25,25,0,0,0,4.68.44m-11.12,22.24v7h-4.1v7h9.95v-14Zm-21.36,14h15.22v-7h-4.09v-7h-7V134h-4.1Zm-13.15,0h10.23V134h-3.21v-5.85h-7Zm0,47.39h-2.94v-7.9l-4.09,1.17v16.09l7-1.17ZM109.07,228.6l.37-14.69h-1.73a27.94,27.94,0,0,1-3.66,8.65,9.55,9.55,0,0,1-4.23,3.53,21.39,21.39,0,0,1-6.83.81h-3.8c-2.87,0-4.74-.25-5.61-.75A3.14,3.14,0,0,1,82,224a44.82,44.82,0,0,1-.3-6.78V191.13a46.89,46.89,0,0,1,.38-7.87A3.27,3.27,0,0,1,83.6,181c.75-.4,2.37-.6,4.82-.6h2.21v-1.69h-24v1.69h1.11c2.52,0,4.17.22,4.91.66a3.41,3.41,0,0,1,1.48,2.4,51.63,51.63,0,0,1,.35,7.69V215.6a53.89,53.89,0,0,1-.35,8,3.77,3.77,0,0,1-1.59,2.52,8.66,8.66,0,0,1-4.43.81H66.67v1.7ZM91.26,155.43a5.75,5.75,0,1,0-5.76,5.75,5.75,5.75,0,0,0,5.76-5.75M79.75,255.35a5.75,5.75,0,1,0,5.75-5.75,5.76,5.76,0,0,0-5.75,5.75m46.08-2.47q-4.4-.43-7.61-.43v5l12,2.34v-3.22q0-3.22-4.38-3.66m-4.54,7.61a13.59,13.59,0,0,1-3.07-1v6.14l4.09.59v-2.93a8.6,8.6,0,0,1,.16-2.19c.09-.3.09-.44,0-.44s-.49,0-1.18-.15m8.92,10.09-12-3.22v5.27l12,3.21Zm-7.9,5-4.09-.88v6.14l4.09.88Zm2.94,1.17c0,4.29-.88,6.06,1.56,7.14s7.48,1.76,11.59,2.8v-5.85Zm15.49,5-.28,4.1v2l5,2.34.29-7.31Zm5-25.16-13.45-2.05v6.15l13.45,2.63Zm-20.47,10.82,13.15,2.93v-7l-13.15-1.75ZM141.63,271c.58.49,1.94.73,4.09.73v-6.14l-4.09-.87a6.52,6.52,0,0,1-.44,2.34,6.24,6.24,0,0,0-.44,2.19,2.21,2.21,0,0,0,.89,1.76m4.09,9.52q0-6.15-3.51-7.32a38.72,38.72,0,0,0-9.94-1.46v5ZM120,250.1l26.32,4.1,3.23-6.73-25.46-3.8Zm27.14,72.62a5.75,5.75,0,1,0,5.75-5.75,5.76,5.76,0,0,0-5.75,5.75m3.28-31.95h12.28v-7.9H150.4a2.26,2.26,0,0,0-2.49,1.76,18.44,18.44,0,0,0-.44,4.39c0,1.16,1,1.75,2.93,1.75m29.25-7.9h-14v7.9h14Zm-2.92-27.5H184c-.39-2.53,1.2-3.24.43-3.43a42.92,42.92,0,0,1-6.57-2.7ZM186,343.43h-1.55V345h22.73v-1.61h-2.27c-2.15,0-3.61-.29-4.36-.84a3.73,3.73,0,0,1-1.4-2.57,62.28,62.28,0,0,1-.27-7.34V322.15h1.89a4.93,4.93,0,0,1,2.83.65,23.84,23.84,0,0,1,3.33,3.6c1.61,2,3.17,4,4.66,6.18q7,10.11,10.4,12.47h12.79v-1.61a12.81,12.81,0,0,1-7.29-2.38q-3.09-2.24-8.48-9.49-6.62-8.94-9.59-10.37,6.64-.81,10.08-4.1a10.61,10.61,0,0,0,3.43-7.94,9.84,9.84,0,0,0-2.62-6.88,14.8,14.8,0,0,0-6.88-4.12,40,40,0,0,0-11-1.26q-4,0-10.79.31l-6.8.35v1.6h.81c2.39,0,4,.21,4.69.64a3.15,3.15,0,0,1,1.41,2.27,51,51,0,0,1,.31,7.32v23.29a53.71,53.71,0,0,1-.31,7.59,3.51,3.51,0,0,1-1.49,2.39,8.23,8.23,0,0,1-4.22.77m12.88-44.62q1.68-.14,3-.14,8.41,0,10.91,3a12.13,12.13,0,0,1,2.51,8,13.88,13.88,0,0,1-.74,4.83,7.59,7.59,0,0,1-5.36,5,20.34,20.34,0,0,1-4.86.77c-1.87.09-3.68.16-5.43.21Zm24.53-8h15.27l-.3-7h-15c.14.41,0,7,0,7m33.5-7H240.51v7h16.39Zm-4.25,39a5.75,5.75,0,1,0,5.75-5.75,5.75,5.75,0,0,0-5.75,5.75m28.23-46-14.63,4.38v6.73l14.63-5.55Zm2.32.12v4.68l2.95-.71v-6.14c-1,.59-1.51.83-1.6.73s-1.35-.13-1.35,1.43m19.93-85.25a29.92,29.92,0,0,0-3,13.25q0,10.72,6.54,17.23t16.83,6.52a20.39,20.39,0,0,0,16-7.07,12.6,12.6,0,0,1,2.28,5h1.5V209.89h-1.5a23.6,23.6,0,0,1-2.75,8.56,13.64,13.64,0,0,1-6.32,6.29,18.38,18.38,0,0,1-7.81,1.86,15,15,0,0,1-11.94-5.69q-4.8-5.69-4.79-16.37,0-11.28,4.39-17.34a13.88,13.88,0,0,1,11.86-6.05,17.5,17.5,0,0,1,11,3.74q4.84,3.74,6.42,13.34h1.5l-.41-18H341.3a17.32,17.32,0,0,1-1.83,6.16,19.22,19.22,0,0,0-6.46-4.85,21,21,0,0,0-9.64-2.18,23.89,23.89,0,0,0-11.84,3,20.38,20.38,0,0,0-8.4,9.23m10.31,63.75a5.75,5.75,0,1,0,5.75-5.75,5.76,5.76,0,0,0-5.75,5.75m11.5-99.91a5.75,5.75,0,1,0-5.75,5.75,5.75,5.75,0,0,0,5.75-5.75M275,275.84l11.12-3.21v-4.09L275,270.88Zm8.29-8.59,2.83-.47,0-5.84-2.93,1Zm2.83-10.71v-4.09l-10.24,2v6.15c1.77-.2,3.9-.48,6.44-.88s3.8-1.47,3.8-3.22m-7-57.63,7,1.17V185.45l-4.1-1.17v7.32l-2.92-.88Zm0-55.87V129h-5v6.15h-3.22V143c.58-.59,7.6-.39,8.19,0m-26.33-.88s14.42.49,15.21.88v-7.9h-4.09V129s-6.44.17-7-.22v6.37h-4.1Zm-13.46,0h10.24v-7h-4.1V129h-6.14Zm1.75-46.84.23-8.75h-5.79v9.95h-5v4.09a15.21,15.21,0,0,0,.15,2.92c.09.4.33,1.17.72,2.35h9.07ZM203.35,110a7.3,7.3,0,0,0-.29,2.63V115c0,1.36.48,2.19,1.46,2.48a13.67,13.67,0,0,0,3.8.44l23.7-.59,7.61-9.66H203.94a10.15,10.15,0,0,1-.59,2.35m14,9.65h-27.5v7.32h27.5Zm-52.07-11.7,7,9.35H196a7.62,7.62,0,0,1,3.66.29c1.06.4,1.6-.48,1.6-2.62v-7.32Zm-.58,78.69H162.1v9.06H182v-9.06h-5v-8.19h-9.36v5.27a2.59,2.59,0,0,1-2.92,2.93m-.88-42.42H146.6v5h13.16c1.56,0,2.58-.44,3.07-1.32a10.45,10.45,0,0,0,1-3.65m-11.12,7.31H138.4v4.68h14.34Zm-9.36-7.31H126.12a37.15,37.15,0,0,0,1.91,3.36,3.65,3.65,0,0,0,3.35,1.61h12ZM122.47,204a4.68,4.68,0,0,0,3.65,1.9h4.09v-6.14h-2.92a10.51,10.51,0,0,0-3.66.44A14.38,14.38,0,0,1,120,201c.58.79,1.41,1.8,2.49,3.07m2.78,9.8a13.47,13.47,0,0,1,3.35.74,10.81,10.81,0,0,0,3.67.43h5.26v-4.09a2.38,2.38,0,0,0-1.17-2.35,6.64,6.64,0,0,0-2.93-.58,20,20,0,0,0-3.94.44,22,22,0,0,1-4.24.44Zm0,9.36h4.09V217h-4.09Zm6.13,19,11.12,2.33v-8.18l-11.12-1.17Zm7-7.91h8.2a5.45,5.45,0,0,1,1.75.16,12.08,12.08,0,0,1,1.18.73V227l-11.12-.88Zm7.32,10.84h3.8v-7.91l-3.8-.87ZM161.79,176c-.2-.29-1.57-.22-2.81-.33-.39.58.14.77,0,.86s-.14.1-.14,0v8l2.63-1.17a30.61,30.61,0,0,1,.15-5.56,4,4,0,0,0,.12-1.85m-.28-8.68h-7v6.15h7Zm-8.24,0h-2v6h2Zm2.39,11.08H148.8v17.16l-.15,0v.08h11.11v-9.06h-4.1Zm-7,0h.15v-.07l-6.29,1.25-.28,7.4-2.79.55.14,9,9.08-1Zm-21,18.88,8.73-.73V187.8l-2.88.62-.05-4.72a5.61,5.61,0,0,1,.15-1.75l.73-1.47a30.73,30.73,0,0,0-3.87.69c-.58.2-.23,1-.23,2.53l-.24,5.19-2.58.46Zm8.73-11.86h3.21c-.2-1.94-.29-3-.29-3.07a12.74,12.74,0,0,0-2.92-.73Zm-7-12h6.14v-6.14h-4.73c-2,0-1.41,1.08-1.41,3.21Zm14.92,2h-12c-1.37,0-2.77-.1-2.86.38s.32,1.58-.07,2.54h2.93a7,7,0,0,0,1.89-.15,5.71,5.71,0,0,0,1.32-.73l2.92,2.05,5.86-2.64Zm-12,30.42h16.38l-2.93-8.19a14.26,14.26,0,0,0-3.66.74,10.53,10.53,0,0,1-3.66.43h-6.13Zm17.26,11.12h-3.81v8.19h3.81Zm-6.15,0H132.27v3.8c0,2.14,1.06,3.21,3.21,3.21h7.9Zm6.15-9.36h-9.94V215h9.94Zm-19.94-56.17,0,4.67h5.85v-4.67Zm8.82,6.73h-9.35l.09,7.34,9.26,0Zm1,.93h11V157.3h-11Zm11,12-11.89-.05v-3.81h-2v6h1.44l12.47,0Zm4.11-15h7v-4.67h-7Zm7,2.06h-7c-1.95,0-2.92,1.08-2.92,3.21v.88c0,2.15,1,3.22,2.92,3.22h4.4c1.16,0,1.9-.24,2.19-.73a5.16,5.16,0,0,0,.43-2.49Zm-12.86,39.49,2.92,8.19h15.21a3.28,3.28,0,0,0-1.17-1.16v-7Zm26,47.4q2.92,0,5.26-3.22a26.92,26.92,0,0,1,4.1-4.69h-9.36Zm11.2,4.69c.94-2.22.77-2.28,1.87-3.39,0,0-4.39-3.25-5.75-4.23l-2.35,5Zm3.63-4.67,2.23-1.29-3.88-6.92L183.75,241ZM194,242.5l3.35-1L196,234.3l-5.27,1.18Zm14.92-.29,3.51-7c-.78-.19-1.17-.49-1.17-.89a18.47,18.47,0,0,1-3.5-.84c-.59-.24-1.53,5.38-1.53,5.38,0,1.56-.52,2.44-.23,2.34a5.85,5.85,0,0,1,2.91,1m8.33.73a17.91,17.91,0,0,0,2.2-3.66l-4.09-2.05a19.72,19.72,0,0,1-1.18,1.9,10.8,10.8,0,0,0-1.3,2.64c-.3.88-1.13,1.29-1,2s2.43,1.15,2.93,2c.36.59,1.41-1.33,2.48-2.79m-.14,7.71,6.43-3.18L221,242.22c-1.64,1.64-3.8,3.93-4.68,4.92-.35,1.41.59,1.64.82,3.51m2.63,4.72h6.72l-.87-6.14-7,3.21Zm3.72,25.45h7.1v-6.14h-7.3c.19.59.2,6.14.2,6.14m.08-8.19h14v-5.85h-14ZM244.31,281c.39.11,1.16.35,2.34.74v-7h-14v6.14h9.06a15.72,15.72,0,0,1,2.64.14m-3.81-8.33h16.39v-5.85H240.5ZM254,281.7l2.93-.3v-6.72h-7.32l.3,6.72Zm30.43-79.87L274.15,201c.19.58.39.93.58,1s.29.1.29,0v4.83h4.1a3.81,3.81,0,0,0,3.36-1.46,19.76,19.76,0,0,0,1.91-3.52M268,151.52H252.79v4.67H268Zm-13.16-7.31H240.51l1.17,5h18.14c0-2.73-.25-4.2-.73-4.39a21.6,21.6,0,0,0-4.24-.58m-18.14,34.22c-.78.4-7.41.4-8.19,0v9.37h-5c.19.78.39,7.31,0,7.89h18.13v-9.06h-5Zm-4.09-58.8H219.44v7.32h12v-4.1a3,3,0,0,1,.3-1.75,6.87,6.87,0,0,0,.88-1.47M231.44,129H203.06v7h28.38Zm-14,9.07H189.9v5h5.26v3.21h16.09V143h6.14Zm-44.46,8.19H182V143h5v-5h-14Zm0,9.94H182v-4.67c0-2.34-1-3.5-2.93-3.5h-6.14Zm0,11.13H184c1.56,0,2.43-.29,2.64-.88a10.39,10.39,0,0,0,.29-2.92h-5a20.36,20.36,0,0,0-.3-4c-.2-.87-1.08-1.31-2.63-1.31h-6.14Zm58.5-9.07h-7v5.27h-5v3.8h12Zm0-10.23h-7v7.31h4.1a5.66,5.66,0,0,1,1.75.15c.2.1.6.34,1.17.72Zm0-10h-12v5h5v3.21h7Zm-8.06,5.85h-11v1.88h11Zm-11,18.63h11v-1.88h-11ZM182.89,145.8h11v-1.88h-11Zm11,14.86h-11v1.88h11Zm1.27-4.47h5V148h-5Zm7.9,0h8.19V148h-8.19Zm8.19,2.05H195.16v5.27H189c.19,1.37.34,2.34.43,2.92s.93.88,2.49.88h24.28v-3.8h-5Zm-31.6,26.33h6.15v-7.9h13.45v7.9h7v-7.9h9.94c2.35,0,2.38.16,2.29.75s.74,1.45.34,2.32a9.88,9.88,0,0,0,.13,5,23.08,23.08,0,0,1,6.32.66v-8.77h6.14v-7H203.06v8.77h-2.93v-8.77h-27.2v7h6.72Zm8.49,2H184v9.06H201.3v-9.06h-4.09v-8.19h-9.07Zm7,11.11h-27.5a13.77,13.77,0,0,1,.73,2.2,10.59,10.59,0,0,1,.44,2.77v3.22h26.33Zm-31.3,13.17V215h2.92v-3.22h12.87V215h6.15v-7.31h-19c-2,0-2.92,1.07-2.92,3.22M152.74,234.3h8.77V227h-8.77Zm0,10.84h19v-7.9h-19Zm14.91-29.53h11v-2.91h-11Zm11.29,12.9h-11v1.88h11Zm-15.08,5.8H185.8V227h-6.15v4.1H166.78V227a12.93,12.93,0,0,1-2.19.74c-.48.1-.73.93-.73,2.48Zm15.79-9.06h20.48V217a11.75,11.75,0,0,0-1,.73c-.1.1-.1.15,0,.15h-8L179.65,217ZM189,215h18.13l5.27.29,3.8-.29v-7.31H189Zm14,10.24H225.3v-7.31h-19a7.42,7.42,0,0,1-1.91-.15,6.3,6.3,0,0,1-1.31-.73ZM219,234.46c.3.48,1,.73,2.2.73h20.48V227h-2.92v5h-9.37l-4.09-.29V227h-4.1c-1.16,0-1.9.25-2.2.74a5.24,5.24,0,0,0-.43,2.48V232a5.25,5.25,0,0,0,.43,2.49m6.88,10.38,6.73.3v-7.91h-12Zm31,.3h2v-7.9h-2Zm2-10.68a16,16,0,0,1,2.93-.16H266v-4.09a7.33,7.33,0,0,1,.14-1.89,6.69,6.69,0,0,1,.73-1.33h-9.94v8.2a16.42,16.42,0,0,1,2-.73m16.09,5.7v-5a57.62,57.62,0,0,0-10.24.58c-1.75.39-2.83.93-3.21,1.61a3.67,3.67,0,0,0-.14,2.78,7,7,0,0,1-.45,4.09h3.95a24.19,24.19,0,0,0,4.68-.43,17.35,17.35,0,0,0,3.8-1.17,2.54,2.54,0,0,0,1.61-2.49M280,217h-1.75v6.14H280Zm0-8.19H268.88V215H280Zm-12-1.76,4.1-.29v-7a28.41,28.41,0,0,1-6.14-.59,14.45,14.45,0,0,0-4.25-.43,3.49,3.49,0,0,0-2.63,1.6c-.68,1-1.12,2.84-1.32,5.56h4.1Zm7-23.4-2.92-.88v6.73l-3.22-.88v9.07l8.19,1.17v-6.14c0-1.76-.34-2.63-1-2.63s-1-.79-1-2.34ZM254,159.42H242.85v5H254Zm-4.39-7.9h-6.72v4.68h6.72Zm-6.72,21.94h6.72v-7h-6.72Zm14.91,2.05H242.85v9.07h2.63v-5c0-1.95-.25-2.2,1.9-2.2,1,0,3.66-.23,4.25.14.78-.38,5.56-.19,6.14,0Zm8.2,11.12h2.92v-4.1a21,21,0,0,1-3.07,1.17c-.1,0,.15,1.75.15,2.93m-9.1,9.06,9.1,1.18V187.8h-3.22v-5.27c0-1.37-.2-2.1-.58-2.2a22.49,22.49,0,0,0-5.2-.59l-.07,6v9.93Zm-.09,0,.12-9.92v-6.16h-8.2v7H244.6v9.06h12.17ZM275,217.93H261v7.31l11.12-1.46,2.92.29Zm-18.13-2h7c1.76,0,2.63-.63,2.63-1.91s.1-3,.3-5.11h-7c-1,0-1.55-.09-1.75-.3a10.07,10.07,0,0,0-1.17-.87Zm0-18.14H232.61v8.19h22.23ZM244.6,215.88H254V207.7H244.6Zm-5.85,9.36H254v-7.31H238.75Zm15.21,12H235.53v7.9H254ZM254,227H244.6v8.19H254Zm-16,2.32H227v1.88h11Zm-11-13.71h11v-2.92H227Zm14.72-7.92H221.19c-1.16,0-1.9.25-2.2.73a5.24,5.24,0,0,0-.43,2.49v2a2.85,2.85,0,0,0,1,2.5,3.07,3.07,0,0,0,2.19.58,4.45,4.45,0,0,0,2.34-1.18,3.88,3.88,0,0,0,1.17-3.07h13.46v4.1h2.92Zm-11.11-9.95H197.21V201a7.17,7.17,0,0,0,.29,2.64,10.17,10.17,0,0,1,.59,2.33h32.47Zm-22.23-16.09v5h-4.38v9.07h17.25v-9.07h-5v-8.19h-5c-2,0-2.93,1.07-2.93,3.22m46.62-22.47h11V157.3h-11Zm11,12H254v-4.72h-2.91v6.6H266Zm9.06,3.42-14,.88c.39,1,.64,2.68.73,2.77a33.84,33.84,0,0,0,4.25.15v3.22l3.79-2,5.27,2Zm0-8.19h-4.1v5.85H275Zm-5.42,0h-2.91v6.61h2.91Zm1.32-10.29H275v-4.67h-4.1Zm4.09,2.06h-8.19v6.14H275Zm1.32,74.89a6.69,6.69,0,0,0,2.63-.44c.68-.3,1-1.12,1-2.49v-4.1H268.88v8.19a10.19,10.19,0,0,1,3.8-1c1.36-.1,2.58-.15,3.65-.15m.43,2.05,1.18,2.92-1.18,4.1H280v-7Zm-19.88,22.23h-7.32v7.32h7.32Zm-10.24,0H233.48v7.32h13.17Zm-16.09,0h-7v7.32h7Zm21.06-9.95H227.34l2.34,7.9h27.21c-.39-1.37-.93-3-1.61-5s-1.9-2.93-3.66-2.93M152.74,215h8.77v-7.31h-8.77ZM163.86,217H152.74v8.19h14V220a2.59,2.59,0,0,0-2.92-2.92M201.3,129H172.93v7H201.3ZM186,119.48c-.11.11-.11.15,0,.15H174.68l-1.75-.87v8.19h14v-8.19q-.87.59-1,.73m91.12,25.46v.28c0,.11-.1.15-.3.15H261.86v3.81h12.29c1.56,0,2.53-.54,2.92-1.61s.78-2.2,1.17-3.36c-.79.39-1.17.64-1.17.73M256.89,247.47l2.92,7.9L285,250.1l-4.38-5.56Zm2.91,42.82,4.33-1.41-.23-7.24-4.09,1.22Zm.31-9.47L273,276.44v-4.69a29.51,29.51,0,0,0-3.66.3,30.54,30.54,0,0,0-4.24.87,14,14,0,0,0-3.65,1.61c-1.08.69-1.62,1.42-1.62,2.2Zm20.76-18.43-14.63,2.34-.28,5.84,14.91-3.22Zm-18.13,3.22-2.93,1.17v5h2.93Zm-2.93-8.19.3,6.43L273,261.52v-7Zm-55-24.56-6.32.12,1.29,9,3.63-.12Zm-11.56-.75a18.79,18.79,0,0,1,6-1h2.93a22.06,22.06,0,0,1,7.9,1.17,58.46,58.46,0,0,1,6.14,2.93V227H188.14v7.31a30,30,0,0,1,5.12-2.19m-41.69,16.24-2.34,7h24.28l2.34-7Zm-2.92,32.47h5v-6.14h-6.15a3.25,3.25,0,0,0,.88,1c.19.1.3.1.3,0Zm0-8.19h12.87v-7H148.65Zm7.9,8.19h16.38v-6.14H156.55Zm0-17.55h15.21v-5.86H156.55Zm18.13,0h5v-5.86h-5Zm5,11.41h-5v6.14h5Zm-14.91-2.05h14.92v-7H164.74Zm-16.09-15.21v3.22c0,1-.1,1.52-.3,1.6a3.51,3.51,0,0,0-.88,1h6.15v-5.85Zm-20.19-15.21v-7h-3.21v6.14ZM125.25,232a12.84,12.84,0,0,1,3.35.73,10.39,10.39,0,0,0,3.67.44h3.21v-7l-10.23-.87Zm87.17-126.09h16.09v-4.39a7.2,7.2,0,0,0-.3-2.63,21.81,21.81,0,0,1-.88-2.34h-3.8V86.58h-6.15v9.95h-5ZM71.77,60.18a3.75,3.75,0,1,0-5.3-.18,3.87,3.87,0,0,0,2.74,1.17,4,4,0,0,0,2.56-1M61.34,70.61a3.77,3.77,0,0,0-.23-5.3A3.73,3.73,0,0,0,56,70.79a3.66,3.66,0,0,0,2.56,1,3.89,3.89,0,0,0,2.74-1.16M51.73,81.74a3.73,3.73,0,1,0-5.88-4.6,3.72,3.72,0,0,0,.64,5.24,3.58,3.58,0,0,0,2.26.81,3.87,3.87,0,0,0,3-1.45m-8.8,11.88a3.73,3.73,0,0,0-6.18-4.2,3.75,3.75,0,0,0,1,5.19,4,4,0,0,0,2.1.64,3.7,3.7,0,0,0,3.09-1.64m-7.87,12.47A3.73,3.73,0,0,0,33.73,101,3.73,3.73,0,0,0,30,107.43a3.62,3.62,0,0,0,1.86.52,3.77,3.77,0,0,0,3.21-1.86m-8.62,8a3.73,3.73,0,0,0-3.26,6.7,4.28,4.28,0,0,0,1.63.41,3.78,3.78,0,0,0,3.38-2.15,3.72,3.72,0,0,0-1.75-5m-6.23,13.64a3.73,3.73,0,1,0-2.74,6.93,3.39,3.39,0,0,0,1.34.29,3.75,3.75,0,0,0,1.4-7.22M15,141.8a3.76,3.76,0,0,0-4.66,2.44v.06A3.71,3.71,0,0,0,12.76,149a3.67,3.67,0,0,0,1.11.18,3.72,3.72,0,0,0,3.55-2.68v.05A3.75,3.75,0,0,0,15,141.8m-4.2,14.45a3.73,3.73,0,0,0-1.63,7.28,4.64,4.64,0,0,0,.82.12,3.79,3.79,0,0,0,3.66-2.91,3.74,3.74,0,0,0-2.85-4.48m-3,14.68a3.74,3.74,0,1,0-1.1,7.4,1.49,1.49,0,0,0,.52.06,3.75,3.75,0,0,0,.58-7.46M5.82,185.84a3.7,3.7,0,0,0-4,3.44,3.76,3.76,0,0,0,3.43,4h.29a3.74,3.74,0,0,0,.29-7.46M3.45,201a3.73,3.73,0,0,0,.29,7.45H4a3.8,3.8,0,0,0,3.49-4,3.72,3.72,0,0,0-4-3.45M1.81,220a3.71,3.71,0,0,0,3.73,3.5h.24a3.81,3.81,0,0,0,3.49-4,3.72,3.72,0,0,0-4-3.44,3.68,3.68,0,0,0-3.44,4m1.68,15.2a3.75,3.75,0,0,0,3.67,3.21,2,2,0,0,0,.58-.06,3.66,3.66,0,0,0,3.09-4.25,3.7,3.7,0,0,0-4.19-3.15,3.79,3.79,0,0,0-3.15,4.25m2.8,15A3.74,3.74,0,0,0,10,253.13a3.88,3.88,0,0,0,.81-.06,3.77,3.77,0,0,0,2.8-4.48,3.71,3.71,0,0,0-4.43-2.86,3.76,3.76,0,0,0-2.86,4.48m4,14.8a3.79,3.79,0,0,0,3.55,2.63,3.36,3.36,0,0,0,1.11-.18A3.71,3.71,0,1,0,10.25,265m5.07,14.45a3.71,3.71,0,0,0,3.44,2.32,3.9,3.9,0,0,0,1.4-.23,3.72,3.72,0,1,0-4.84-2.09m6.12,14a3.73,3.73,0,0,0,3.38,2.09,4.15,4.15,0,0,0,1.63-.34,3.84,3.84,0,0,0,1.75-5,3.75,3.75,0,1,0-6.76,3.27M28.6,307a3.78,3.78,0,0,0,3.26,1.87,4,4,0,0,0,1.87-.52,3.75,3.75,0,0,0-3.79-6.47A3.78,3.78,0,0,0,28.6,307m9.09,7.75a3.73,3.73,0,0,0-.93,5.19,3.69,3.69,0,0,0,3.09,1.63,4.06,4.06,0,0,0,2.09-.63,3.76,3.76,0,0,0,1-5.2,3.81,3.81,0,0,0-5.24-1M46.43,327a3.78,3.78,0,0,0,2.32,6.7,3.93,3.93,0,0,0,2.34-.81A3.75,3.75,0,0,0,46.43,327M56,338.59a3.73,3.73,0,0,0,2.5,6.46,3.89,3.89,0,0,0,2.56-1,3.76,3.76,0,0,0,.18-5.3,3.69,3.69,0,0,0-5.24-.18m10.43,10.78a3.76,3.76,0,0,0,.18,5.3,3.84,3.84,0,0,0,2.57,1,3.89,3.89,0,0,0,2.73-1.16,3.75,3.75,0,0,0-5.47-5.12m11.18,10a3.73,3.73,0,0,0,.59,5.25,3.59,3.59,0,0,0,2.33.81,3.73,3.73,0,0,0,2.33-6.64,3.77,3.77,0,0,0-5.25.58m11.89,9.15a3.8,3.8,0,0,0,1,5.24,3.85,3.85,0,0,0,2.1.64,3.76,3.76,0,0,0,3.09-1.63,3.75,3.75,0,0,0-6.17-4.25m12.58,8.27a3.74,3.74,0,0,0,3.21,5.59,3.71,3.71,0,0,0,1.87-6.94,3.66,3.66,0,0,0-5.07,1.35m13.11,7.28A3.7,3.7,0,0,0,117,389a3.29,3.29,0,0,0,1.64.41,4,4,0,0,0,3.38-2.11,3.75,3.75,0,0,0-6.76-3.26m13.63,6.23a3.81,3.81,0,0,0,2.1,4.9,4,4,0,0,0,1.4.23,3.67,3.67,0,0,0,3.44-2.39,3.72,3.72,0,0,0-2.1-4.84,3.77,3.77,0,0,0-4.84,2.09M143,395.56a3.67,3.67,0,0,0,2.45,4.66,3.54,3.54,0,0,0,1.11.18,3.73,3.73,0,0,0,3.55-2.62,3.72,3.72,0,1,0-7.11-2.21m14.39,4.14a3.78,3.78,0,0,0,2.86,4.48,3.12,3.12,0,0,0,.81.12,3.75,3.75,0,0,0,.82-7.39,3.77,3.77,0,0,0-4.49,2.8m14.74,3.08a3.75,3.75,0,0,0,3.14,4.25c.18,0,.35.06.53.06a3.7,3.7,0,0,0,3.66-3.22,3.66,3.66,0,0,0-3.08-4.25,3.75,3.75,0,0,0-4.25,3.15m14.86,1.93a3.72,3.72,0,0,0,3.49,4h.24a3.66,3.66,0,0,0,3.73-3.43,3.74,3.74,0,0,0-7.45-.57m14.29,1.68a3.72,3.72,0,0,0,3.73,3.5h.23a3.81,3.81,0,0,0,3.5-4,3.74,3.74,0,0,0-4-3.44,3.68,3.68,0,0,0-3.44,4m15.88-1.11a3.75,3.75,0,0,0,3.73,3.43h.29a3.71,3.71,0,0,0,3.43-4,3.74,3.74,0,1,0-7.46.52m15-1.4a3.71,3.71,0,0,0,3.67,3.22,1.47,1.47,0,0,0,.52-.06,3.74,3.74,0,0,0-1-7.4,3.73,3.73,0,0,0-3.14,4.25m14.8-2.5a3.72,3.72,0,0,0,3.61,2.91,4.74,4.74,0,0,0,.87-.05,3.78,3.78,0,0,0,2.8-4.49,3.73,3.73,0,0,0-7.29,1.63m14.56-3.55a3.81,3.81,0,0,0,3.61,2.62,3.38,3.38,0,0,0,1.05-.17,3.75,3.75,0,0,0-2.16-7.17,3.84,3.84,0,0,0-2.5,4.72m14.28-4.72a3.72,3.72,0,0,0,3.49,2.34,3.6,3.6,0,0,0,1.35-.23,3.73,3.73,0,1,0-2.75-6.94,3.72,3.72,0,0,0-2.09,4.84m13.92-5.77a3.63,3.63,0,0,0,3.32,2.11,4,4,0,0,0,1.63-.35,3.79,3.79,0,0,0,1.75-5,3.75,3.75,0,0,0-5-1.68v-.06a3.76,3.76,0,0,0-1.69,5m13.4-6.75a3.78,3.78,0,0,0,3.21,1.87,3.65,3.65,0,0,0,1.86-.52,3.74,3.74,0,1,0-5.07-1.34m13.81-13a3.73,3.73,0,0,0-.93,5.18,3.66,3.66,0,0,0,3.08,1.63,3.56,3.56,0,0,0,2.11-.64,3.75,3.75,0,0,0-4.26-6.17m11.89-8.74a3.7,3.7,0,0,0-.58,5.24,3.61,3.61,0,0,0,2.91,1.4,3.56,3.56,0,0,0,2.32-.81,3.77,3.77,0,0,0,.58-5.25,3.71,3.71,0,0,0-5.24-.58m11.18-9.62a3.73,3.73,0,0,0,2.51,6.47,4,4,0,0,0,2.56-1,3.75,3.75,0,1,0-5.12-5.48Zm10.37-10.43a3.71,3.71,0,0,0,.23,5.25,3.55,3.55,0,0,0,2.5,1,3.73,3.73,0,1,0-2.73-6.24M360,327.63a3.65,3.65,0,0,0,.58,5.24,3.41,3.41,0,0,0,2.27.81,3.81,3.81,0,0,0,3-1.4,3.75,3.75,0,0,0-.58-5.23,3.71,3.71,0,0,0-5.24.58m8.74-11.82a3.73,3.73,0,0,0,1,5.18,3.89,3.89,0,0,0,2.1.64,3.79,3.79,0,0,0,3.09-1.63,3.75,3.75,0,0,0-1-5.19,3.69,3.69,0,0,0-5.18,1m7.86-12.47a3.73,3.73,0,0,0,1.35,5.07,3.59,3.59,0,0,0,1.86.53,3.88,3.88,0,0,0,3.27-1.86,3.75,3.75,0,0,0-1.4-5.13,3.68,3.68,0,0,0-5.07,1.4m8.63-8a4,4,0,0,0,1.62.34,3.71,3.71,0,0,0,3.38-2.09,3.75,3.75,0,1,0-5,1.75m6.29-13.63a3.56,3.56,0,0,0,1.34.23,3.75,3.75,0,0,0,1.4-7.23,3.76,3.76,0,0,0-2.74,7m5.24-14.1a3.39,3.39,0,0,0,1,.18,3.82,3.82,0,0,0,3.62-2.62,3.74,3.74,0,0,0-2.51-4.66,3.68,3.68,0,0,0-4.65,2.44,3.74,3.74,0,0,0,2.5,4.66m4.13-14.39a4.07,4.07,0,0,0,.82.05,3.74,3.74,0,0,0,.82-7.4,3.76,3.76,0,0,0-1.64,7.34m3.61-14.68a3.75,3.75,0,1,0-3.66-4.32,3.67,3.67,0,0,0,3.08,4.26,2.37,2.37,0,0,0,.58.05m1.64-14.91a3.8,3.8,0,0,0,3.78-3.5,3.71,3.71,0,0,0-3.49-4,3.63,3.63,0,0,0-4,3.44,3.72,3.72,0,0,0,3.44,4Zm0,0"/></g></g></svg>