<svg xmlns="http://www.w3.org/2000/svg" xmlns:xlink="http://www.w3.org/1999/xlink" viewBox="0 0 1828.33 1104.52"><defs><style>.cls-1{fill:none;}.cls-1,.cls-10,.cls-11,.cls-12,.cls-13,.cls-14,.cls-16,.cls-17,.cls-3,.cls-4,.cls-5,.cls-6,.cls-7,.cls-8,.cls-9{stroke:#2b3f5d;stroke-miterlimit:10;stroke-width:11px;}.cls-2{clip-path:url(#clip-path);}.cls-3{fill:url(#linear-gradient);}.cls-4{fill:url(#linear-gradient-2);}.cls-5{fill:url(#linear-gradient-3);}.cls-6{fill:url(#linear-gradient-4);}.cls-7{opacity:0.33;fill:url(#linear-gradient-5);}.cls-8{fill:url(#linear-gradient-6);}.cls-16,.cls-9{opacity:0.1;}.cls-9{fill:url(#linear-gradient-7);}.cls-10{fill:url(#linear-gradient-8);}.cls-11{fill:#ccd2dc;}.cls-12{fill:url(#linear-gradient-9);}.cls-13{fill:url(#linear-gradient-10);}.cls-14{fill:url(#linear-gradient-11);}.cls-15{clip-path:url(#clip-path-2);}.cls-16{fill:url(#linear-gradient-12);}.cls-17{fill:#fff;}</style><clipPath id="clip-path"><path class="cls-1" d="M911.32,1099H341.76c-85.43,0-256.45-71.74-256.45-234.4s147-188.3,228-255,8.11-278.47,108-459c51-92.2,363-189,483-69,189.93,189.93,129,345,298.24,357,128.32,9.1,218.12,204,353.66,204,300,0,417,455.79-27,455.79Z"/></clipPath><linearGradient id="linear-gradient" x1="649.76" y1="693.75" x2="649.76" y2="96.36" gradientUnits="userSpaceOnUse"><stop offset="0" stop-color="#295293"/><stop offset="1" stop-color="#2b3f5d"/></linearGradient><linearGradient id="linear-gradient-2" x1="800.76" y1="260.36" x2="800.76" y2="130.47" gradientUnits="userSpaceOnUse"><stop offset="0" stop-color="#839bc4"/><stop offset="0.45" stop-color="#a2b2ce"/><stop offset="1" stop-color="#ccd2dc"/></linearGradient><linearGradient id="linear-gradient-3" x1="852.98" y1="764.76" x2="1131.82" y2="764.76" gradientTransform="translate(1984.52 1505.46) rotate(180)" xlink:href="#linear-gradient"/><linearGradient id="linear-gradient-4" x1="992.26" y1="1098.21" x2="992.26" y2="758.65" gradientUnits="userSpaceOnUse"><stop offset="0" stop-color="#839bc4"/><stop offset="0.03" stop-color="#8ca2c7"/><stop offset="0.14" stop-color="#a3b3cf"/><stop offset="0.26" stop-color="#b6c1d5"/><stop offset="0.4" stop-color="#c2cbd9"/><stop offset="0.59" stop-color="#cad0db"/><stop offset="1" stop-color="#ccd2dc"/></linearGradient><linearGradient id="linear-gradient-5" x1="840.83" y1="260.36" x2="840.83" y2="130.47" xlink:href="#linear-gradient"/><linearGradient id="linear-gradient-6" x1="570.76" y1="594.36" x2="570.76" y2="96.36" gradientUnits="userSpaceOnUse"><stop offset="0" stop-color="#839bc4"/><stop offset="1" stop-color="#ccd2dc"/></linearGradient><linearGradient id="linear-gradient-7" x1="875.07" y1="1098.21" x2="875.07" y2="768.62" xlink:href="#linear-gradient"/><linearGradient id="linear-gradient-8" x1="457.9" y1="1201.02" x2="457.9" y2="766.55" gradientTransform="translate(-204.7 74.03) rotate(-12.63)" xlink:href="#linear-gradient-2"/><linearGradient id="linear-gradient-9" x1="1341.5" y1="707.28" x2="1103.18" y2="294.5" gradientTransform="matrix(0.97, 0.4, -0.23, 1.69, 127.48, -916.77)" xlink:href="#linear-gradient-2"/><linearGradient id="linear-gradient-10" x1="1385.78" y1="1099.02" x2="1385.78" y2="807.01" gradientUnits="userSpaceOnUse"><stop offset="0" stop-color="#295293"/><stop offset="0.06" stop-color="#3b609b"/><stop offset="0.21" stop-color="#6783af"/><stop offset="0.37" stop-color="#8b9fbf"/><stop offset="0.53" stop-color="#a8b5cc"/><stop offset="0.69" stop-color="#bcc5d5"/><stop offset="0.84" stop-color="#c8cfda"/><stop offset="1" stop-color="#ccd2dc"/></linearGradient><linearGradient id="linear-gradient-11" x1="1409.47" y1="1096.7" x2="1333.02" y2="964.29" gradientTransform="translate(668.09 222.81) scale(0.46 0.59)" xlink:href="#linear-gradient"/><clipPath id="clip-path-2"><path class="cls-1" d="M1271.89,836.23h0a110.63,110.63,0,0,0-110.63,110.63v19.78h0a132.1,132.1,0,0,0,131.57,132.1l71.44.29h86.23a176.41,176.41,0,0,0,131.36-58.67l28.43-31.72-25.19,4.32a87.32,87.32,0,0,1-99.47-64.89l-8.6-34.42c-28.76-158.35-124.09-93.48-124.09-93.48Z"/></clipPath><linearGradient id="linear-gradient-12" x1="1149.26" y1="928.84" x2="1343.54" y2="928.84" xlink:href="#linear-gradient"/></defs><title>trio-1_2</title><g id="Layer_2" data-name="Layer 2"><g id="Layer_1-2" data-name="Layer 1"><g class="cls-2"><rect class="cls-3" x="433.76" y="96.36" width="432" height="597.38" rx="54" ry="54"/><rect class="cls-4" x="425.76" y="130.47" width="750" height="129.9"/><path class="cls-5" d="M1131.5,740a.06.06,0,0,1,0,.12l-13.14,2.2a768.7,768.7,0,0,1-265.66-2.26h0l1.69-.28a853,853,0,0,1,275.76,0Z"/><path class="cls-6" d="M1099.26,1098.21h-214a50,50,0,0,1-50-50V758.65a627.85,627.85,0,0,0,314,0v289.56A50,50,0,0,1,1099.26,1098.21Z"/><path class="cls-1" d="M1144.13,789.18h17.13v36.88h0c-62.26,151.52-276.85,151.52-339.1,0h0V789.18h17.13"/><polygon class="cls-7" points="867.04 130.47 950.56 260.36 731.09 260.36 731.09 130.47 867.04 130.47"/><path class="cls-8" d="M326.76,150.36v402a42,42,0,0,0,42,42h350a42,42,0,0,0,42-42v-402a54,54,0,0,1,54-54h-434A54,54,0,0,0,326.76,150.36Z"/><polygon class="cls-9" points="877.63 768.62 1054.51 1098.21 695.64 1098.21 835.26 988.25 887.56 892.22 877.63 768.62"/><path class="cls-10" d="M697.64,663.62c-108.14-1.75-199.1,75.86-217.36,179.06l-38,13.59-10.73,36.81L373,875.59l-24.73,45.16-38.12,7.39-25.8-12.42-16.58,35.74-51.28-44.83-16.64,39.74-96.35,20.45-25.26,31.6-38.6-40.63-33,68.73,70,71.88,437-96.82a216.94,216.94,0,0,0,177,96.36c119.93,1.94,218.73-93.72,220.66-213.65S817.57,665.56,697.64,663.62ZM844.91,897.7a50.42,50.42,0,1,1,13.43-70A50.42,50.42,0,0,1,844.91,897.7Z"/><rect class="cls-11" x="386.41" y="513.15" width="344.68" height="20.32" rx="8.5" ry="8.5"/><rect class="cls-11" x="386.41" y="451.82" width="344.68" height="20.32" rx="8.5" ry="8.5"/><rect class="cls-11" x="386.41" y="389.82" width="344.68" height="20.32" rx="8.5" ry="8.5"/><rect class="cls-12" x="1164.85" y="4.29" width="75.56" height="825.56" transform="translate(-63.55 286.5) rotate(-13.24)"/><path class="cls-13" d="M1271.89,836.23h0a110.63,110.63,0,0,0-110.63,110.63v19.78h0a132.1,132.1,0,0,0,131.57,132.1l71.44.29h86.23a176.41,176.41,0,0,0,131.36-58.67l28.43-31.72-25.19,4.32a87.32,87.32,0,0,1-99.47-64.89l-8.6-34.42c-28.76-158.35-124.09-93.48-124.09-93.48Z"/><rect class="cls-14" x="1244.99" y="808.79" width="108.03" height="35.91" rx="12" ry="12" transform="translate(-154.81 319.46) rotate(-13.24)"/><g class="cls-15"><polyline class="cls-16" points="1149.26 758.65 1343.55 1099.02 1149.26 1099.02"/></g><path class="cls-1" d="M1271.89,836.23h0a110.63,110.63,0,0,0-110.63,110.63v19.78h0a132.1,132.1,0,0,0,131.57,132.1l71.44.29h86.23a176.41,176.41,0,0,0,131.36-58.67l28.43-31.72-25.19,4.32a87.32,87.32,0,0,1-99.47-64.89l-8.6-34.42c-28.76-158.35-124.09-93.48-124.09-93.48Z"/><circle class="cls-17" cx="947.53" cy="663.77" r="21.6"/><circle class="cls-17" cx="1046.11" cy="597.83" r="35.52"/><circle class="cls-17" cx="963.82" cy="526.8" r="30.17"/><path class="cls-17" d="M1525.82,881.63l8.48,3.67a11.07,11.07,0,0,1,5.92,6.15l4.26,11,4.27-11a11.07,11.07,0,0,1,5.85-6.12l10.22-4.51-10.07-4a11.07,11.07,0,0,1-6.39-6.78l-4.73-11.38L1539.74,870a11.07,11.07,0,0,1-5.22,6.72Z"/><path class="cls-17" d="M1599.31,821.18l16.3,7.06A21.29,21.29,0,0,1,1627,840.06l8.19,21.06L1643.4,840a21.29,21.29,0,0,1,11.25-11.76l19.66-8.67-19.36-7.74a21.29,21.29,0,0,1-12.29-13l-9.1-21.88-7.45,21.88a21.29,21.29,0,0,1-10,12.92Z"/><path class="cls-17" d="M1498.82,758.18l16.3,7.06a21.29,21.29,0,0,1,11.38,11.82l8.19,21.06L1542.9,777a21.29,21.29,0,0,1,11.25-11.76l19.66-8.67-19.36-7.74a21.29,21.29,0,0,1-12.29-13l-9.1-21.88-7.45,21.88a21.29,21.29,0,0,1-10,12.92Z"/></g><path class="cls-1" d="M911.32,1099H341.76c-85.43,0-256.45-71.74-256.45-234.4s147-188.3,228-255,8.11-278.47,108-459c51-92.2,363-189,483-69,189.93,189.93,129,345,298.24,357,128.32,9.1,218.12,204,353.66,204,300,0,417,455.79-27,455.79Z"/></g></g></svg>